HIERARCHY
	ROOT Hips
	{
		OFFSET 0 0 0 
		CHANNELS 6 Xposition Yposition Zposition Zrotation Xrotation Yrotation
		JOINT LHipJoint
		{
			OFFSET 0 0 0 
			CHANNELS 3 Zrotation Xrotation Yrotation
			JOINT LeftUpLeg
			{
				OFFSET 0.0783705 -0.0912565 0.0336595 
				CHANNELS 3 Zrotation Xrotation Yrotation
				JOINT LeftLeg
				{
					OFFSET 0.117854 -0.323802 0 
					CHANNELS 3 Zrotation Xrotation Yrotation
					JOINT LeftFoot
					{
						OFFSET 0.135318 -0.371784 0 
						CHANNELS 3 Zrotation Xrotation Yrotation
						JOINT LeftToeBase
						{
							OFFSET 0.0102135 -0.028061 0.104268 
							CHANNELS 3 Zrotation Xrotation Yrotation
							End Site
							{
								OFFSET 0 -0 0.0542675
							}
						}
					}
				}
			}
		}
		JOINT RHipJoint
		{
			OFFSET 0 0 0 
			CHANNELS 3 Zrotation Xrotation Yrotation
			JOINT RightUpLeg
			{
				OFFSET -0.075711 -0.0912565 0.0336595 
				CHANNELS 3 Zrotation Xrotation Yrotation
				JOINT RightLeg
				{
					OFFSET -0.124412 -0.341819 0 
					CHANNELS 3 Zrotation Xrotation Yrotation
					JOINT RightFoot
					{
						OFFSET -0.135017 -0.370955 0 
						CHANNELS 3 Zrotation Xrotation Yrotation
						JOINT RightToeBase
						{
							OFFSET -0.009875 -0.0271315 0.111076 
							CHANNELS 3 Zrotation Xrotation Yrotation
							End Site
							{
								OFFSET -0 -0 0.0574575
							}
						}
					}
				}
			}
		}
		JOINT LowerBack
		{
			OFFSET 0 0 0 
			CHANNELS 3 Zrotation Xrotation Yrotation
			JOINT Spine
			{
				OFFSET -0.0007835 0.106437 -0.007921 
				CHANNELS 3 Zrotation Xrotation Yrotation
				JOINT Spine1
				{
					OFFSET 0.003049 0.106663 -0.0005215 
					CHANNELS 3 Zrotation Xrotation Yrotation
					JOINT Neck
					{
						OFFSET 0 0 0 
						CHANNELS 3 Zrotation Xrotation Yrotation
						JOINT Neck1
						{
							OFFSET -0.00252 0.089216 0.0066935 
							CHANNELS 3 Zrotation Xrotation Yrotation
							JOINT Head
							{
								OFFSET -9e-005 0.08844 -0.0166515 
								CHANNELS 3 Zrotation Xrotation Yrotation
								End Site
								{
									OFFSET 0.000367 0.0906245 -0.0063595
								}
							}
						}
					}
					JOINT LeftShoulder
					{
						OFFSET 0 0 0 
						CHANNELS 3 Zrotation Xrotation Yrotation
						JOINT LeftArm
						{
							OFFSET 0.1861 0.047094 -0.0271585 
							CHANNELS 3 Zrotation Xrotation Yrotation
							JOINT LeftForeArm
							{
								OFFSET 0.257301 -0 0 
								CHANNELS 3 Zrotation Xrotation Yrotation
								JOINT LeftHand
								{
									OFFSET 0.182226 -0 -0 
									CHANNELS 3 Zrotation Xrotation Yrotation
									JOINT LeftFingerBase
									{
										OFFSET 0 0 0 
										CHANNELS 3 Zrotation Xrotation Yrotation
										JOINT LFingers
										{
											OFFSET 0.028114 -0 0 
											CHANNELS 3 Zrotation Xrotation Yrotation
											End Site
											{
												OFFSET 0.022666 -0 0
											}
										}
									}
									JOINT LThumb
									{
										OFFSET 0 0 0 
										CHANNELS 3 Zrotation Xrotation Yrotation
										End Site
										{
											OFFSET 0.0230125 -0 0.0230125
										}
									}
								}
							}
						}
					}
					JOINT RightShoulder
					{
						OFFSET 0 0 0 
						CHANNELS 3 Zrotation Xrotation Yrotation
						JOINT RightArm
						{
							OFFSET -0.165127 0.0613395 -0.0234705 
							CHANNELS 3 Zrotation Xrotation Yrotation
							JOINT RightForeArm
							{
								OFFSET -0.266957 -0 0 
								CHANNELS 3 Zrotation Xrotation Yrotation
								JOINT RightHand
								{
									OFFSET -0.178239 -0 -0 
									CHANNELS 3 Zrotation Xrotation Yrotation
									JOINT RightFingerBase
									{
										OFFSET 0 0 0 
										CHANNELS 3 Zrotation Xrotation Yrotation
										JOINT RFingers
										{
											OFFSET -0.0428735 -0 0 
											CHANNELS 3 Zrotation Xrotation Yrotation
											End Site
											{
												OFFSET -0.034566 -0 0
											}
										}
									}
									JOINT RThumb
									{
										OFFSET 0 0 0 
										CHANNELS 3 Zrotation Xrotation Yrotation
										End Site
										{
											OFFSET -0.0350935 -0 0.0350935
										}
									}
								}
							}
						}
					}
				}
			}
		}
	}
MOTION
Frames:	11
Frame Time:	0.0166667
0.096665 0.78534 1.67521 0.149313 12.2358 19.0293 -0 0 -0 -27.8639 -53.1343 -42.4743 -19.2046 57.2419 34.4495 -0.405895 -1.60341 -8.47544 -0.885967 -16.3911 -6.14589 -0 0 -0 30.2071 -50.3558 14.2169 27.2693 62.2497 -43.7717 -4.51585 -26.1613 -6.71534 0.571571 13.2516 -4.91714 -1.70977 33.4346 2.36805 0.803067 8.02993 2.66353 0.674117 -8.28425 1.31371 -0.622817 -11.6886 17.3771 -22.3237 6.86005 26.4154 -3.8276 6.32909 11.7148 -0 0 -0 -68.7123 -10.1989 -15.6506 25.4277 -11.4848 -48.0471 -0 9.8682 -0 23.6582 17.3705 34.273 -7.125 0 0 2.2124 0.934402 67.8859 -0 0 -0 72.8445 -10.179 3.27378 -31.2675 -19.8472 64.0262 -0 18.6548 -0 -31.7071 5.15409 -8.27359 7.125 0 -0 -5.303 -0.495764 -39.6742 
0.089445 0.787555 1.67323 -0.16497 12.0049 20.4926 -0 0 -0 -28.6011 -53.9695 -41.5805 -23.1211 59.9759 39.0356 -0.391179 -3.02165 -6.43949 -1.02467 -17.5768 -6.62069 -0 0 -0 29.8074 -50.5286 12.6675 26.3572 61.7949 -42.7389 -4.60631 -25.6187 -7.3221 0.459752 11.9133 -4.40404 -1.57846 34.0331 2.15977 0.892438 7.73527 2.45596 0.758181 -8.83293 1.21946 -0.709349 -11.6225 17.5646 -22.0936 7.00989 26.6689 -3.70597 6.32683 11.8352 -0 0 -0 -68.6613 -10.2126 -14.9362 25.478 -11.5397 -48.1648 -0 9.5064 -0 25.0916 17.2552 32.3533 -7.125 0 0 3.21288 1.2436 66.1381 -0 0 -0 72.8033 -9.93746 3.04147 -31.2782 -19.868 64.0627 -0 18.8528 -0 -31.4577 4.93995 -8.01206 7.125 0 -0 -5.03458 -0.499737 -39.3457 
0.083485 0.788185 1.6715 -0.308896 11.8999 21.4797 -0 0 -0 -28.9296 -55.0826 -39.9996 -28.2055 62.6932 44.8274 -0.400901 -3.37383 -6.22523 -1.14634 -18.5441 -7.01301 -0 0 -0 29.5541 -50.9122 11.7817 25.8332 61.5229 -42.1435 -4.51195 -25.0076 -7.49127 0.424108 11.4507 -4.2279 -1.62675 34.3496 2.27136 0.941279 7.49665 2.58451 0.760999 -9.21954 1.28055 -1.06148 -11.0903 17.5978 -22.1852 6.85511 26.7167 -3.75914 6.18592 11.9046 -0 0 -0 -68.7107 -9.81107 -14.3341 25.5184 -11.584 -48.2596 -0 9.3162 -0 25.3007 17.2045 32.0347 -7.125 0 0 3.34755 1.2756 65.8367 -0 0 -0 72.5257 -9.95946 2.53198 -31.2981 -19.9064 64.1298 -0 18.8114 -0 -31.6743 5.00633 -8.05031 7.125 0 -0 -5.24948 -0.515277 -39.4093 
0.07699 0.78747 1.66988 -0.656447 11.7543 22.4711 -0 0 -0 -28.3492 -56.2027 -37.8752 -34.5357 65.17 51.8711 -0.552133 -3.5406 -7.69588 -1.68569 -22.2422 -8.5601 -0 0 -0 29.9323 -51.1995 11.3772 25.5279 61.3607 -41.796 -4.54403 -25.0033 -7.58362 0.556471 13.0797 -4.85084 -1.45907 34.6785 2.40526 0.86709 7.21067 2.80067 0.491802 -9.64866 1.37739 -1.13318 -10.7074 17.4698 -21.9307 6.9199 26.4925 -3.73679 6.09182 11.8303 -0 0 -0 -68.3472 -9.15855 -13.7935 25.5502 -11.619 -48.3343 -0 9.0369 -0 24.7581 17.1903 32.6539 -7.125 0 0 2.93466 1.15002 66.3806 -0 0 -0 72.5383 -10.136 2.14509 -31.2729 -19.8577 64.0445 -0 19.0407 -0 -31.6009 5.05256 -8.14657 7.125 0 -0 -5.18707 -0.499368 -39.5158 
0.070985 0.78795 1.66886 -0.658312 11.7402 23.3012 -0 0 -0 -27.768 -56.8897 -35.6464 -41.4428 67.0832 59.4216 -0.708319 -4.04591 -8.67709 -2.59135 -27.0872 -10.7282 -0 0 -0 29.7896 -51.4656 10.8218 25.2189 61.1936 -41.4437 -4.48707 -24.8555 -7.52999 0.645524 14.0614 -5.23044 -1.68505 34.6264 2.49504 0.706945 7.19247 2.82081 0.413051 -9.6484 1.39382 -0.810043 -10.697 17.578 -22.0736 7.04613 26.6513 -3.78504 6.19346 11.8914 -0 0 -0 -68.1229 -8.85337 -13.567 25.6059 -11.6804 -48.4654 -0 8.4708 -0 25.4186 17.8761 32.8591 -7.125 0 0 3.73323 1.49664 66.8152 -0 0 -0 72.812 -10.0649 1.98679 -31.3359 -19.9799 64.2583 -0 18.9852 -0 -31.6922 5.19184 -8.33795 7.125 0 -0 -5.2948 -0.48808 -39.7484 
0.06559 0.78877 1.66686 -0.923822 11.7826 24.4887 -0 0 -0 -27.1488 -57.2265 -33.7993 -48.8904 68.4925 67.4638 -0.813263 -3.90725 -9.73896 -2.78526 -27.9768 -11.1476 -0 0 -0 29.5089 -52.08 9.86182 24.9441 61.0423 -41.1298 -4.49258 -24.6522 -7.69217 0.705017 14.6768 -5.47021 -1.23316 34.6335 2.23449 0.648652 7.09804 2.65617 0.212416 -9.73778 1.31535 -0.785401 -10.4669 17.6542 -22.2312 6.79865 26.715 -3.88089 6.12389 11.9597 -0 0 -0 -68.2705 -9.0968 -13.4821 25.5785 -11.6501 -48.4009 -0 8.6435 -0 25.4538 17.9343 32.8998 -7.125 0 0 3.78522 1.52192 66.8727 -0 0 -0 73.0097 -10.0618 1.93578 -31.3809 -20.068 64.412 -0 18.9059 -0 -31.7207 4.92739 -7.91122 7.125 0 -0 -5.28144 -0.533334 -39.2501 
0.0596 0.788775 1.66484 -0.9304 12.21 25.8493 -0 0 -0 -27.2933 -57.5861 -32.4472 -56.5482 69.4107 75.667 -0.73269 -3.06285 -10.02 -2.60941 -27.1719 -10.7678 -0 0 -0 29.0646 -53.023 9.38221 24.6811 60.8955 -40.829 -4.59951 -24.362 -8.21365 0.763374 15.2533 -5.69609 -1.37087 34.5358 2.12356 0.563727 6.92714 2.46662 0.257657 -9.89275 1.23527 -0.41736 -10.4701 17.6528 -22.6501 6.8738 26.7653 -4.034 6.25827 11.96 -0 0 -0 -68.1242 -9.09892 -13.3363 25.5494 -11.6181 -48.3324 -0 9.0564 -0 23.9359 17.3475 33.8897 -7.125 0 0 2.40229 0.997491 67.5361 -0 0 -0 73.1943 -10.0544 1.78208 -31.4174 -20.1397 64.5373 -0 18.8795 -0 -31.8981 5.0091 -7.9857 7.125 0 -0 -5.46148 -0.541677 -39.3528 
0.05384 0.789215 1.66336 -1.33828 12.2641 27.0796 -0 0 -0 -25.8249 -57.4897 -29.9229 -63.7437 69.875 83.3404 -0.580136 -2.19426 -9.67616 -2.40775 -26.2037 -10.3188 -0 0 -0 29.3475 -53.2071 9.04364 24.0884 60.556 -40.1495 -4.85269 -24.6297 -8.73499 0.891551 16.4403 -6.16549 -1.08888 34.414 1.87241 0.591771 6.85989 2.26462 0.248708 -9.91587 1.14216 -0.380127 -10.139 17.6485 -22.8141 6.38523 26.6566 -4.19447 6.1016 11.9803 -0 0 -0 -68.2031 -9.7476 -13.3275 25.4105 -11.4661 -48.0069 -0 9.8278 -0 23.9979 16.2249 32.1134 -7.125 0 0 1.92762 0.722624 65.5418 -0 0 -0 73.2546 -9.7221 1.87382 -31.4315 -20.1673 64.5854 -0 18.8783 -0 -32.0833 5.09238 -8.05902 7.125 0 -0 -5.64913 -0.550225 -39.4553 
0.04801 0.78968 1.66149 -1.48945 12.4443 28.3767 -0 0 -0 -24.9426 -57.1656 -27.7344 -69.9894 70 89.9887 -0.306643 -0.554166 -9.01742 -2.04998 -24.3497 -9.48092 -0 0 -0 29.2455 -53.6389 8.6915 23.6458 60.2948 -39.6408 -4.94492 -24.2226 -9.32814 0.948119 16.934 -6.36254 -1.11223 34.3268 1.75952 0.692894 6.82789 2.13807 0.42588 -9.92444 1.0894 -0.412576 -10.3576 17.6719 -22.9723 6.49848 26.7719 -4.18579 6.19148 12.0003 -0 0 -0 -68.5686 -9.45792 -13.3234 25.4776 -11.5392 -48.1638 -0 9.1789 -0 22.7345 17.4377 35.5711 -7.125 0 0 1.58937 0.71 69.0652 -0 0 -0 73.2335 -9.77609 1.83313 -31.4749 -20.2535 64.7355 -0 18.9881 -0 -31.8266 5.14992 -8.22915 7.125 0 -0 -5.41534 -0.51031 -39.6327 
0.04221 0.79006 1.6604 -1.53414 12.8119 29.4761 -0 0 -0 -23.6572 -56.5998 -24.9298 -75.2496 69.9122 95.5875 0.0642805 1.92477 -8.25459 -1.47556 -20.8982 -7.98841 -0 0 -0 29.3402 -53.9434 8.71628 23.39 60.1406 -39.3459 -5.20792 -24.2543 -10.0732 1.09545 18.1471 -6.8514 -1.42984 34.1701 1.76894 0.610748 6.73958 2.03527 0.525082 -9.96805 1.05178 -0.137986 -10.5518 17.7076 -23.0444 6.62818 26.8447 -4.19557 6.30267 12.0082 -0 0 -0 -68.3431 -9.1278 -13.0833 25.6192 -11.6952 -48.4969 -0 9.0179 -0 23.1866 17.9044 35.6691 -7.125 0 0 2.13362 0.964672 69.319 -0 0 -0 73.4572 -9.83182 1.8784 -31.4511 -20.2063 64.6533 -0 19.2458 -0 -31.9337 4.92629 -7.84486 7.125 0 -0 -5.48262 -0.559599 -39.1903 
0.036315 0.79174 1.65989 -2.06287 12.4504 30.9713 -0 0 -0 -21.1864 -55.3449 -21.646 -78.4454 69.7713 98.9917 0.507235 4.86427 -8.56779 -1.65755 -22.068 -8.48533 -0 0 -0 29.5871 -53.9725 7.96121 22.6846 59.703 -38.5307 -5.48291 -24.0185 -11.1002 1.07306 17.9689 -6.7792 -0.790449 34.2772 1.37687 0.775616 6.76378 1.80184 0.514678 -9.97259 0.939293 0.321522 -10.4167 17.8036 -23.4748 6.47971 26.9572 -4.39855 6.37459 12.0753 -0 0 -0 -68.3868 -9.35644 -12.8721 25.6146 -11.6902 -48.486 -0 8.8555 -0 22.1095 17.4956 36.502 -7.125 0 0 1.18629 0.551094 69.9152 -0 0 -0 73.6243 -9.65898 2.02542 -31.4304 -20.1654 64.5819 -0 19.478 -0 -31.919 5.01812 -7.99344 7.125 0 -0 -5.48253 -0.542752 -39.3637 
